<svg width="21" height="22" viewBox="0 0 21 22" fill="none" xmlns="http://www.w3.org/2000/svg">
<path d="M11.2303 21.4284L9.72265 19.8985L11.2303 18.3685L12.7379 19.8985L11.2303 21.4284ZM7.76273 19.8985L6.70738 18.8275L9.6724 15.8187L10.7277 16.8896L7.76273 19.8985ZM14.2456 18.3685L12.7379 16.8386L14.2456 15.3087L15.7532 16.8386L14.2456 18.3685ZM5.19975 18.3685L3.69212 16.8386L5.19975 15.3087L6.70738 16.8386L5.19975 18.3685ZM6.20484 14.2887C4.68045 14.2887 3.37786 13.7403 2.29705 12.6435C1.21625 11.5468 0.67618 10.2252 0.67685 8.67899C0.67685 7.26805 1.13752 6.03561 2.05885 4.98166C2.98018 3.92771 4.11928 3.30723 5.47615 3.12024C6.0122 2.15129 6.74524 1.3904 7.67528 0.837587C8.60533 0.284773 9.62281 0.00870544 10.7277 0.00938541C12.2354 0.00938541 13.5463 0.498283 14.6607 1.47608C15.775 2.45387 16.449 3.6734 16.6829 5.13465C17.8387 5.23665 18.8103 5.72112 19.5976 6.58808C20.385 7.45504 20.7786 8.49199 20.7786 9.69894C20.7786 10.9739 20.3391 12.0578 19.46 12.9505C18.5808 13.8433 17.5128 14.2894 16.2557 14.2887H6.20484Z" fill="white"/>
</svg>
